<svg xmlns="http://www.w3.org/2000/svg" viewBox="0 0 366.31 502.01"><defs><style>.cls-1{fill:#8caff2;}.cls-2{fill:none;stroke-width:7px;}.cls-2,.cls-3{stroke:#000;stroke-miterlimit:10;}.cls-3{fill:#d0e8f2;stroke-width:5px;}.cls-4{fill:#583d72;}.cls-5{fill:#b13de2;}</style></defs><title>Ресурс 3ldpi</title><g id="Слой_2" data-name="Слой 2"><g id="Слой_2-2" data-name="Слой 2"><path class="cls-1" d="M12.7,129.35C15.15,121.74,25.76,90.56,54,60.79,67.11,47,114.78,1.19,188.74,1.91c8,.08,88.49,2.2,139.32,68.52,36,47,36,98.68,35.79,115.68-.41,28.41-7.11,49.07-14.19,70.32-6.48,19.44-20.9,56.91-75.6,130.32a1180.9,1180.9,0,0,1-91.8,108.72,745.48,745.48,0,0,1-93.16-107c-20.66-28.86-37.82-52.83-53.36-88.81C17.33,257-8.87,196.32,12.7,129.35Z"/><path class="cls-2" d="M11.62,131C14.07,123.34,24.68,92.16,53,62.39,66,48.63,113.7,2.79,187.66,3.51c8,.08,88.49,2.2,139.32,68.52,36,47,36,98.68,35.79,115.68-.41,28.41-7.11,49.07-14.19,70.32-6.48,19.44-20.9,56.91-75.6,130.32a1180.9,1180.9,0,0,1-91.8,108.72A745.48,745.48,0,0,1,88,390c-20.66-28.86-37.82-52.83-53.36-88.81C16.25,258.59-9.95,197.92,11.62,131Z"/><circle class="cls-3" cx="183.15" cy="177.39" r="120.14"/><circle class="cls-4" cx="182.42" cy="133.68" r="57.34"/><path class="cls-4" d="M196.62,293.41c2.43-1.65,5-3.51,7.58-5.62a112.19,112.19,0,0,0,9.29-8.4q-5.09-38.67-10.18-77.32a85.62,85.62,0,0,0,18.91-9.49,86.83,86.83,0,0,0,25.33-26.3,27.33,27.33,0,0,1,17.7,7.08,26.88,26.88,0,0,1,7.67,13l1,65.11a117.13,117.13,0,0,1-77.26,42Z"/><path class="cls-4" d="M168.23,293.41c-2.43-1.65-5-3.51-7.58-5.62a112.19,112.19,0,0,1-9.29-8.4q5.08-38.67,10.18-77.32a85.41,85.41,0,0,1-18.91-9.49,86.89,86.89,0,0,1-25.34-26.3,27.29,27.29,0,0,0-17.69,7.08,26.71,26.71,0,0,0-7.67,13v63.12a104.67,104.67,0,0,0,76.3,44Z"/><path class="cls-5" d="M174.76,204.28l15.28.12,10.33,69.23-18,15.64-15.92-15.64Z"/></g></g></svg>